<svg width="240" height="239" viewBox="0 0 240 239" fill="none" xmlns="http://www.w3.org/2000/svg">
<rect width="240" height="239" rx="50" fill="white"/>
<path d="M90 77C80.2 78.7 71.7 84.2 68 91.3C65.6 95.9 65.4 96 60.8 96H56V87V77.9L46.3 78.2L36.5 78.5V88V97.5L43.8 97.8L51 98.1V133V168H60H69V139.7C69 123.1 69.4 109.9 70.1 107.7C71.4 102.8 76.4 97.2 81.5 94.9C86.8 92.4 96.2 92.5 101.6 94.9C104.1 96.1 106.6 98.2 108.1 100.6C110.5 104.5 110.5 104.7 110.8 136.2L111.1 168H120.1H129V141C129 110.8 129.7 105.6 134.3 100.4C139.4 94.5 144.1 92.7 153.1 93.2C161.8 93.6 165 95.2 168.5 101.1C170.4 104.3 170.5 106.6 170.8 136.2L171.1 168H180.1H189V134.2C189 95.6 188.8 94.3 181.4 86.1C176.5 80.7 170.4 77.8 161.5 76.6C150.2 75.2 134.8 80.6 128.9 88L125.8 91.9L122.6 87.7C116.4 79.5 102.1 74.8 90 77Z" fill="black"/>
</svg>
